<svg width="44" height="44" viewBox="0 0 44 44" fill="none" xmlns="http://www.w3.org/2000/svg">
<path d="M40.7787 4.37477H7.99984C7.90329 4.38203 7.8083 4.40315 7.71782 4.43748L6.91381 1.88213C6.78234 1.4814 6.52584 1.13277 6.18155 0.886876C5.83726 0.640984 5.42311 0.510632 4.99924 0.514749H1.0002C0.738938 0.511024 0.486868 0.610555 0.299339 0.791485C0.111809 0.972416 0.00415005 1.21996 0 1.47975L0 3.40976C0.00415005 3.66956 0.111809 3.9171 0.299339 4.09803C0.486868 4.27896 0.738938 4.37849 1.0002 4.37477H3.51909L9.76727 24.1922L7.43405 26.8172C6.90124 27.3689 6.54587 28.066 6.41331 28.8195C6.28076 29.5729 6.37704 30.3486 6.68986 31.0474C7.00268 31.7462 7.51785 32.3364 8.16958 32.7427C8.8213 33.149 9.58001 33.3529 10.3488 33.3284H39.0008C39.262 33.3321 39.5141 33.2326 39.7016 33.0517C39.8891 32.8707 39.9968 32.6232 40.001 32.3634V30.4351C39.9968 30.1753 39.8891 29.9278 39.7016 29.7468C39.5141 29.5659 39.262 29.4664 39.0008 29.4701H10.3488L13.5193 25.901C13.5941 25.8103 13.6604 25.7129 13.7173 25.6101H33.0959C33.8477 25.6151 34.5858 25.4098 35.226 25.0177C35.8662 24.6257 36.3827 24.0626 36.7166 23.3927L43.6952 9.08134C43.8951 8.6689 43.9992 8.21708 44 7.75925V7.48229C43.9871 6.64546 43.6405 5.84799 43.0364 5.26525C42.4323 4.6825 41.6202 4.3622 40.7787 4.37477V4.37477Z" fill="white"/>
<path d="M36.0143 43.304C37.9491 43.304 39.5176 41.7442 39.5176 39.8202C39.5176 37.8962 37.9491 36.3364 36.0143 36.3364C34.0795 36.3364 32.511 37.8962 32.511 39.8202C32.511 41.7442 34.0795 43.304 36.0143 43.304Z" fill="white"/>
<path d="M11.491 43.304C13.4259 43.304 14.9944 41.7442 14.9944 39.8202C14.9944 37.8962 13.4259 36.3364 11.491 36.3364C9.55618 36.3364 7.98767 37.8962 7.98767 39.8202C7.98767 41.7442 9.55618 43.304 11.491 43.304Z" fill="white"/>
</svg>
