<svg width="28" height="26" viewBox="0 0 28 26" fill="none" xmlns="http://www.w3.org/2000/svg">
<path d="M0.741278 16.1048C0.741278 16.1048 0.740664 16.1097 0.740295 16.1127C0.581569 17.3619 0.825303 18.628 1.43629 19.7284C2.04728 20.8287 2.99389 21.7062 4.13941 22.2341C5.28492 22.762 6.57003 22.9131 7.80912 22.6654C9.04822 22.4177 10.1771 21.7842 11.0328 20.8562C11.8885 19.9283 12.4267 18.754 12.5697 17.503C12.7126 16.252 12.4529 14.989 11.828 13.8965C11.2031 12.8039 10.2455 11.9384 9.09333 11.4249C7.9412 10.9114 6.65424 10.7765 5.41834 11.0397C7.68736 3.6156 14.2308 -0.557571 8.22905 2.80207C1.57334 6.52755 0.756582 15.9332 0.741278 16.1048Z" fill="#FE6A6A"/>
<path d="M20.3603 12.5414C19.7103 12.4636 19.0517 12.4939 18.4111 12.6309C20.6817 5.20197 27.2252 1.02877 21.2234 4.38844C14.5677 8.11393 13.751 17.5196 13.7357 17.6912C13.7357 17.6912 13.7351 17.6962 13.7347 17.6991C13.5891 18.8617 13.7927 20.0403 14.3198 21.086C14.8468 22.1316 15.6737 22.9973 16.6956 23.5735C17.7176 24.1497 18.8888 24.4104 20.061 24.3228C21.2333 24.2352 22.354 23.8032 23.2812 23.0813C24.2085 22.3595 24.9008 21.3803 25.2704 20.2676C25.64 19.155 25.6704 17.9588 25.3577 16.8305C25.045 15.7022 24.4033 14.6924 23.5137 13.929C22.6242 13.1655 21.5268 12.6826 20.3603 12.5414Z" fill="#FE6A6A"/>
</svg>
