<svg width="297" height="107" viewBox="0 0 297 107" fill="none" xmlns="http://www.w3.org/2000/svg">
<path d="M74.9542 39.1617C73.5728 37.7265 72.2417 36.2501 70.9609 34.7325C59.5508 21.0988 56.057 14.2546 63.9183 4.72682C63.9183 4.72682 31.5584 18.3129 38.4765 39.7294C44.9435 62.5556 85.5054 66.497 63.4427 86.6715C63.4427 86.6715 46.4107 101.978 17.2354 93.3901C17.2354 93.3901 38.1723 112.175 70.8046 90.3134C93.2135 71.5481 85.399 50.0393 74.9542 39.1617ZM57.3766 46.4415C39.8059 32.8319 52.3767 18.8316 52.3767 18.8316C50.7925 30.5036 51.3518 34.8397 65.7327 47.2327C83.7687 61.8527 74.0174 72.5936 74.0174 72.5936C74.0174 72.5936 74.9745 59.5581 57.3697 46.4405L57.3766 46.4415Z" fill="url(#paint0_linear)"/>
<path d="M27.9428 27.0329C26.9421 30.0605 27.2178 33.2003 27.5584 36.2755C27.7187 37.519 27.6119 38.7797 27.2444 39.9846C26.8769 41.1895 26.2559 42.3147 25.4173 43.295C23.4974 45.6264 21.4519 47.8653 19.484 50.1625C18.9072 50.8023 18.3949 51.4901 17.9538 52.2172C17.7017 52.5777 17.5421 52.9872 17.4873 53.4141C17.4326 53.8411 17.4841 54.274 17.638 54.6794C17.7919 55.0849 18.044 55.4521 18.3749 55.7526C18.7057 56.0531 19.1065 56.279 19.5461 56.4127C20.4654 56.7978 21.3847 57.1787 22.2588 57.6234C22.4818 57.7185 22.6823 57.8539 22.8485 58.0216C23.0148 58.1893 23.1436 58.386 23.2273 58.6004C23.3111 58.8147 23.3483 59.0424 23.3366 59.2702C23.3249 59.498 23.2647 59.7214 23.1594 59.9273C22.8884 60.6147 22.5733 61.2864 22.216 61.9387C21.4293 63.3769 21.5841 64.136 22.9455 65.1494C23.2995 65.4124 23.6654 65.6626 24.0391 65.9281C23.6168 66.5261 23.1986 67.0274 22.8859 67.5809C22.6752 67.8269 22.5294 68.1152 22.46 68.4229C22.3906 68.7305 22.3996 69.049 22.4863 69.3529C22.573 69.6567 22.7349 69.9375 22.9592 70.1729C23.1835 70.4082 23.4639 70.5915 23.778 70.7081C25.8316 71.9254 26.1813 72.6672 25.745 74.8666C24.8867 79.1924 27.7135 81.604 32.3381 80.5952C35.584 79.7906 38.9926 79.7373 42.2658 80.4398C44.5258 80.9146 46.5667 82.0404 48.0976 83.6568C49.6285 85.2732 50.5712 87.2976 50.7911 89.4412C51.0111 91.5849 50.4971 93.7384 49.3225 95.5945C48.148 97.4507 46.3727 98.9148 44.25 99.778C40.9721 101.127 37.3417 101.558 33.804 101.018C27.2483 100.204 21.8401 97.1832 16.9559 93.2647C9.35285 87.3209 4.12032 79.1742 2.09904 70.1336C0.76641 64.6984 0.618472 59.0702 1.66395 53.5811C2.70943 48.0919 4.92715 42.8529 8.18628 38.1731C13.4762 30.5443 21.1997 24.6431 30.2764 21.2953C29.4756 23.238 28.5825 25.0995 27.9428 27.0329Z" fill="url(#paint1_linear)"/>
<path d="M33.3134 80.0284C41.0453 78.8268 48.0668 80.7984 50.2328 87.1257C53.4029 100.24 36.8187 103.101 27.6745 99.3979C27.6745 99.3979 43.8131 106.576 54.5424 97.7748C62.091 89.9325 57.2015 80.5634 50.4274 77.4431C41.3983 73.6575 33.0113 79.5876 26.7944 79.3565C27.7254 80.7773 29.9835 81.097 33.3134 80.0284Z" fill="#FE6A6A" fill-opacity="0.19"/>
<path d="M25.3632 71.6069C25.3632 71.6069 25.9688 72.7466 24.7506 75.3735C23.866 76.9511 24.0675 82.4277 28.2927 83.3715C32.5179 84.3153 43.5412 82.3211 44.9087 89.4948C46.1407 95.9517 40.0316 100.276 32.2168 100.174C30.9336 100.122 29.6616 99.9277 28.4282 99.5945C29.6342 100.046 30.8877 100.379 32.1682 100.588C36.1051 101.325 43.5759 101.945 48.079 97.3443C54.3908 90.8874 50.7503 83.7202 45.0349 80.6822L45.0059 80.6703C39.9227 78.6536 38.2843 79.1088 31.5429 80.299C30.7285 80.4478 29.8919 80.4591 29.0731 80.3324C28.5478 80.2453 28.0472 80.0597 27.6016 79.7869C27.156 79.5142 26.7748 79.1599 26.4813 78.7458C26.1878 78.3316 25.9882 77.8663 25.8945 77.3781C25.8008 76.8899 25.815 76.3891 25.9363 75.9062C26.3115 74.2489 26.3057 72.6777 25.3632 71.6069Z" fill="white" fill-opacity="0.24"/>
<path d="M30.3433 11.9015C30.9521 11.9015 31.4456 11.4429 31.4456 10.877C31.4456 10.3112 30.9521 9.85254 30.3433 9.85254C29.7345 9.85254 29.241 10.3112 29.241 10.877C29.241 11.4429 29.7345 11.9015 30.3433 11.9015Z" fill="#578925"/>
<path d="M41.545 4.9616C42.1537 4.9616 42.6473 4.50292 42.6473 3.9371C42.6473 3.37128 42.1537 2.9126 41.545 2.9126C40.9362 2.9126 40.4426 3.37128 40.4426 3.9371C40.4426 4.50292 40.9362 4.9616 41.545 4.9616Z" fill="#578925"/>
<path d="M40.1391 18.6705C47.1363 9.88366 36.1965 4.80635 36.1965 4.80635L36.2845 5.11628L36.1953 4.8042C36.1953 4.8042 29.4123 14.3745 40.1241 18.6715L40.1391 18.6705Z" fill="#578925"/>
<path d="M45.014 11.7443C52.1468 9.01412 47.5614 3.06944 47.5614 3.06944L47.5047 3.26207L47.5614 3.06836C47.5614 3.06836 40.2805 6.28391 45.0036 11.7336V11.7411L45.014 11.7443Z" fill="#578925"/>
<path d="M35.0039 19.3315C32.7055 12.626 25.677 16.1278 25.677 16.1278L25.8854 16.1988L25.677 16.1278C25.677 16.1278 28.5035 23.0152 35.0039 19.338H35.012V19.3304H35.0051L35.0039 19.3315Z" fill="#578925"/>
<path d="M105.643 58.2183C105.643 57.5239 105.529 56.9219 105.3 56.4121C105.072 55.9023 104.773 55.4849 104.404 55.1597C104.035 54.8345 103.617 54.5928 103.151 54.4346C102.686 54.2764 102.22 54.1973 101.754 54.1973C101.13 54.1973 100.603 54.2632 100.172 54.395C99.7412 54.5269 99.3896 54.707 99.1172 54.9355C98.8535 55.1641 98.6602 55.4365 98.5371 55.7529C98.4229 56.0605 98.3657 56.3945 98.3657 56.7549C98.3657 57.1768 98.4404 57.603 98.5898 58.0337C98.748 58.4556 98.9766 58.8687 99.2754 59.2729L99.2227 59.418C98.7217 59.6641 98.2163 59.7871 97.7065 59.7871C97.4077 59.7871 97.1265 59.7432 96.8628 59.6553C96.6079 59.5586 96.3838 59.4224 96.1904 59.2466C96.0059 59.0708 95.8564 58.8555 95.7422 58.6006C95.6367 58.3457 95.584 58.0601 95.584 57.7437C95.584 57.2251 95.707 56.7373 95.9531 56.2803C96.208 55.8232 96.542 55.4058 96.9551 55.0278C97.3682 54.6499 97.8472 54.3115 98.3921 54.0127C98.937 53.7139 99.4995 53.4634 100.08 53.2612C100.66 53.0503 101.24 52.8921 101.82 52.7866C102.409 52.6724 102.954 52.6152 103.455 52.6152C104.377 52.6152 105.164 52.7383 105.814 52.9844C106.474 53.2305 107.005 53.5908 107.41 54.0654C107.823 54.5312 108.122 55.0981 108.306 55.7661C108.5 56.4341 108.596 57.1899 108.596 58.0337C108.596 58.6138 108.57 59.251 108.517 59.9453C108.473 60.6396 108.42 61.3691 108.359 62.1338C108.297 62.8896 108.24 63.6719 108.188 64.4805C108.144 65.2891 108.122 66.0933 108.122 66.8931C108.122 68.1587 108.354 69.1123 108.82 69.7539C109.295 70.3867 109.915 70.7031 110.679 70.7031C111.356 70.7031 112.112 70.4526 112.947 69.9517L113.329 70.5186C112.74 71.1074 112.099 71.5557 111.404 71.8633C110.71 72.1709 109.98 72.3247 109.216 72.3247C108.645 72.3247 108.117 72.228 107.634 72.0347C107.15 71.8413 106.733 71.5557 106.381 71.1777C106.03 70.791 105.757 70.3076 105.564 69.7275C105.371 69.1475 105.274 68.4751 105.274 67.7104C105.274 67.4819 105.278 67.2534 105.287 67.0249C105.305 66.7964 105.335 66.5547 105.379 66.2998H105.3C104.922 67.0557 104.483 67.8027 103.982 68.541C103.49 69.2705 102.945 69.9253 102.347 70.5054C101.758 71.0767 101.125 71.5381 100.449 71.8896C99.7808 72.25 99.0776 72.4302 98.3394 72.4302C97.7329 72.4302 97.1792 72.3247 96.6782 72.1138C96.1772 71.9028 95.7466 71.6128 95.3862 71.2437C95.0347 70.8745 94.7578 70.4395 94.5557 69.9385C94.3623 69.4287 94.2656 68.875 94.2656 68.2773C94.2656 67.5039 94.4062 66.8008 94.6875 66.168C94.9775 65.5352 95.373 64.9683 95.874 64.4673C96.3838 63.9663 96.9902 63.5356 97.6934 63.1753C98.3965 62.8062 99.1611 62.5029 99.9873 62.2656C100.813 62.0195 101.688 61.8394 102.611 61.7251C103.534 61.6021 104.474 61.5405 105.432 61.5405C105.494 60.9868 105.542 60.4507 105.577 59.9321C105.621 59.4136 105.643 58.8423 105.643 58.2183ZM97.5483 67.2754C97.5483 67.6182 97.5835 67.9478 97.6538 68.2642C97.7329 68.5718 97.8516 68.8442 98.0098 69.0815C98.1768 69.3188 98.3833 69.5078 98.6294 69.6484C98.8843 69.7803 99.1875 69.8462 99.5391 69.8462C99.9346 69.8462 100.343 69.7539 100.765 69.5693C101.187 69.3848 101.6 69.1299 102.004 68.8047C102.417 68.4795 102.809 68.0928 103.178 67.6445C103.556 67.1875 103.894 66.6909 104.193 66.1548C104.492 65.6187 104.738 65.0562 104.931 64.4673C105.133 63.8696 105.265 63.2588 105.327 62.6348C104.676 62.6523 104.03 62.6963 103.389 62.7666C102.747 62.8281 102.136 62.9292 101.556 63.0698C100.985 63.2104 100.453 63.395 99.9609 63.6235C99.4688 63.8521 99.0425 64.1377 98.6821 64.4805C98.3306 64.8145 98.0537 65.2144 97.8516 65.6802C97.6494 66.1372 97.5483 66.6689 97.5483 67.2754ZM121.279 63.2808C122.333 62.9292 123.296 62.5293 124.166 62.0811C125.036 61.6328 125.783 61.1538 126.407 60.644C127.04 60.1343 127.528 59.5981 127.871 59.0356C128.213 58.4731 128.385 57.8975 128.385 57.3086C128.385 57.0625 128.336 56.8384 128.24 56.6362C128.152 56.4253 128.029 56.2495 127.871 56.1089C127.721 55.9595 127.541 55.8452 127.33 55.7661C127.128 55.687 126.908 55.6475 126.671 55.6475C126.117 55.6475 125.542 55.8188 124.944 56.1616C124.355 56.5044 123.766 57.001 123.177 57.6514C122.597 58.3018 122.03 59.0972 121.477 60.0376C120.923 60.978 120.409 62.0459 119.934 63.2412C119.459 64.4365 119.033 65.7505 118.655 67.1831C118.277 68.6157 117.974 70.145 117.746 71.771L115.083 72.1138L114.872 72.1006C114.924 71.0635 114.981 69.9209 115.043 68.6729C115.113 67.416 115.184 66.0845 115.254 64.6782C115.333 63.272 115.412 61.8086 115.491 60.2881C115.579 58.7588 115.663 57.2031 115.742 55.6211C115.83 54.0391 115.917 52.4438 116.005 50.8354C116.093 49.2271 116.177 47.6406 116.256 46.0762C116.344 44.5029 116.427 42.9648 116.506 41.4619C116.585 39.959 116.66 38.522 116.73 37.1509C116.739 36.9399 116.801 36.7598 116.915 36.6104C117.029 36.4521 117.174 36.3291 117.35 36.2412C117.535 36.1445 117.741 36.0742 117.97 36.0303C118.198 35.9863 118.436 35.9644 118.682 35.9644C119.209 35.9644 119.763 36.105 120.343 36.3862C120.141 38.188 119.96 39.8403 119.802 41.3433C119.644 42.8462 119.499 44.2437 119.367 45.5356C119.244 46.8188 119.13 48.0229 119.024 49.1479C118.919 50.2642 118.822 51.3364 118.734 52.3647C118.655 53.3843 118.576 54.3862 118.497 55.3706C118.427 56.3462 118.356 57.3394 118.286 58.3501C118.216 59.3608 118.141 60.4067 118.062 61.4878C117.992 62.5688 117.913 63.729 117.825 64.9683L117.904 64.9814C118.22 63.9355 118.594 62.9028 119.024 61.8833C119.455 60.8638 119.93 59.897 120.448 58.9829C120.967 58.0601 121.525 57.2119 122.123 56.4385C122.72 55.6562 123.344 54.9839 123.995 54.4214C124.645 53.8589 125.317 53.4194 126.012 53.103C126.706 52.7778 127.409 52.6152 128.121 52.6152C128.569 52.6152 128.982 52.6899 129.36 52.8394C129.738 52.98 130.063 53.1865 130.336 53.459C130.617 53.7227 130.833 54.0435 130.982 54.4214C131.14 54.7993 131.219 55.2212 131.219 55.687C131.219 56.4165 131.061 57.124 130.745 57.8096C130.428 58.4951 129.98 59.1543 129.4 59.7871C128.82 60.4199 128.121 61.022 127.304 61.5933C126.495 62.1558 125.594 62.6787 124.601 63.1621C125.19 64.2432 125.717 65.1704 126.183 65.9438C126.658 66.7085 127.084 67.3545 127.462 67.8818C127.849 68.4004 128.196 68.8135 128.503 69.1211C128.811 69.4287 129.092 69.6616 129.347 69.8198C129.611 69.978 129.857 70.0835 130.085 70.1362C130.314 70.1802 130.542 70.2021 130.771 70.2021C131.228 70.2021 131.703 70.1318 132.195 69.9912C132.687 69.8506 133.184 69.666 133.685 69.4375L133.935 70.123C133.619 70.3779 133.219 70.6372 132.735 70.9009C132.252 71.1646 131.738 71.4062 131.193 71.626C130.657 71.8457 130.121 72.0215 129.584 72.1533C129.057 72.2939 128.591 72.3643 128.187 72.3643C127.712 72.3643 127.238 72.1885 126.763 71.8369C126.297 71.4941 125.792 70.958 125.247 70.2285C124.711 69.499 124.118 68.5762 123.467 67.46C122.817 66.335 122.07 64.9946 121.226 63.439L121.279 63.2808ZM138.918 64.7705C139.595 62.5469 140.312 60.6616 141.067 59.1147C141.832 57.5679 142.605 56.3154 143.388 55.3574C144.179 54.3906 144.965 53.6919 145.748 53.2612C146.53 52.8306 147.277 52.6152 147.989 52.6152C148.481 52.6152 148.956 52.7119 149.413 52.9053C149.87 53.0898 150.274 53.3799 150.625 53.7754C150.986 54.1709 151.271 54.6807 151.482 55.3047C151.693 55.9287 151.799 56.6758 151.799 57.5459C151.799 57.8096 151.781 58.1699 151.746 58.627C151.72 59.0752 151.685 59.5806 151.641 60.1431C151.597 60.6968 151.544 61.2812 151.482 61.8965C151.43 62.5117 151.381 63.1182 151.337 63.7158C151.293 64.3135 151.254 64.8804 151.219 65.4165C151.192 65.9526 151.179 66.4141 151.179 66.8008C151.179 67.4863 151.206 68.0444 151.258 68.4751C151.32 68.9058 151.417 69.2485 151.548 69.5034C151.68 69.7495 151.856 69.9209 152.076 70.0176C152.295 70.1055 152.563 70.1494 152.88 70.1494C153.337 70.1494 153.812 70.0879 154.304 69.9648C154.796 69.833 155.292 69.6528 155.793 69.4243L156.044 70.1099C155.728 70.3647 155.328 70.624 154.844 70.8877C154.361 71.1514 153.851 71.3931 153.315 71.6128C152.788 71.8325 152.26 72.0083 151.733 72.1401C151.206 72.2808 150.74 72.3511 150.335 72.3511C149.861 72.3511 149.487 72.2236 149.215 71.9688C148.942 71.7139 148.736 71.3667 148.595 70.9272C148.463 70.4878 148.375 69.9736 148.332 69.3848C148.296 68.7959 148.279 68.1631 148.279 67.4863C148.279 66.6689 148.305 65.8252 148.358 64.9551C148.419 64.085 148.481 63.25 148.542 62.4502C148.613 61.6504 148.674 60.9209 148.727 60.2617C148.789 59.5938 148.819 59.0576 148.819 58.6533C148.819 57.6777 148.63 56.9482 148.252 56.4648C147.875 55.9727 147.365 55.7266 146.723 55.7266C146.222 55.7266 145.686 55.9419 145.115 56.3726C144.552 56.8032 143.99 57.3965 143.427 58.1523C142.874 58.8994 142.337 59.7871 141.819 60.8154C141.3 61.835 140.834 62.9424 140.421 64.1377C140.008 65.3242 139.666 66.5679 139.393 67.8687C139.121 69.1694 138.949 70.4702 138.879 71.771L136.071 72.1138L135.86 72.1006C135.913 71.0635 135.97 69.9209 136.031 68.6729C136.102 67.416 136.172 66.0845 136.242 64.6782C136.321 63.272 136.4 61.8086 136.479 60.2881C136.567 58.7588 136.651 57.2031 136.73 55.6211C136.818 54.0391 136.906 52.4438 136.994 50.8354C137.082 49.2271 137.165 47.6406 137.244 46.0762C137.332 44.5029 137.416 42.9648 137.495 41.4619C137.574 39.959 137.648 38.522 137.719 37.1509C137.728 36.9399 137.789 36.7598 137.903 36.6104C138.018 36.4521 138.163 36.3291 138.338 36.2412C138.523 36.1445 138.729 36.0742 138.958 36.0303C139.187 35.9863 139.424 35.9644 139.67 35.9644C140.197 35.9644 140.751 36.105 141.331 36.3862C141.129 38.1792 140.949 39.8271 140.791 41.3301C140.632 42.8242 140.487 44.2129 140.355 45.4961C140.232 46.7705 140.118 47.9614 140.013 49.0688C139.916 50.1763 139.824 51.2397 139.736 52.2593C139.657 53.27 139.582 54.2588 139.512 55.2256C139.441 56.1924 139.371 57.1768 139.301 58.1787C139.23 59.1719 139.156 60.209 139.077 61.29C139.006 62.3623 138.927 63.5181 138.839 64.7573L138.918 64.7705ZM161.37 47.2627C161.062 47.2627 160.79 47.2012 160.553 47.0781C160.315 46.9463 160.113 46.7793 159.946 46.5771C159.779 46.3662 159.652 46.1289 159.564 45.8652C159.476 45.5928 159.432 45.3159 159.432 45.0347C159.432 44.6392 159.498 44.292 159.63 43.9932C159.762 43.6855 159.933 43.4307 160.144 43.2285C160.355 43.0176 160.588 42.8638 160.843 42.7671C161.098 42.6616 161.348 42.6089 161.594 42.6089C161.893 42.6089 162.161 42.666 162.398 42.7803C162.636 42.8857 162.838 43.0352 163.005 43.2285C163.181 43.4219 163.312 43.646 163.4 43.9009C163.497 44.147 163.545 44.415 163.545 44.7051C163.545 45.0127 163.493 45.3203 163.387 45.6279C163.282 45.9268 163.132 46.1992 162.939 46.4453C162.754 46.6914 162.526 46.8892 162.253 47.0386C161.99 47.188 161.695 47.2627 161.37 47.2627ZM162.517 53.2217C162.368 54.2236 162.24 55.23 162.135 56.2407C162.029 57.2427 161.941 58.2139 161.871 59.1543C161.81 60.0947 161.761 60.9868 161.726 61.8306C161.7 62.6655 161.687 63.4214 161.687 64.0981C161.687 65.0122 161.7 65.7988 161.726 66.458C161.752 67.1084 161.796 67.6577 161.858 68.106C161.919 68.5542 161.994 68.9146 162.082 69.187C162.179 69.4507 162.293 69.6572 162.425 69.8066C162.565 69.9473 162.724 70.0396 162.899 70.0835C163.084 70.1274 163.291 70.1494 163.519 70.1494C163.941 70.1494 164.394 70.0879 164.877 69.9648C165.369 69.833 165.866 69.6528 166.367 69.4243L166.617 70.1099C166.301 70.3647 165.901 70.624 165.417 70.8877C164.943 71.1514 164.442 71.3931 163.915 71.6128C163.387 71.8325 162.869 72.0083 162.359 72.1401C161.858 72.2808 161.423 72.3511 161.054 72.3511C160.808 72.3511 160.583 72.3291 160.381 72.2852C160.179 72.25 159.995 72.1533 159.828 71.9951C159.669 71.8369 159.524 71.604 159.393 71.2964C159.27 70.9888 159.164 70.5713 159.076 70.0439C158.997 69.5166 158.936 68.8574 158.892 68.0664C158.848 67.2754 158.826 66.3174 158.826 65.1924C158.826 64.5332 158.83 63.7905 158.839 62.9644C158.856 62.1294 158.878 61.2373 158.905 60.2881C158.931 59.3301 158.966 58.3237 159.01 57.269C159.054 56.2056 159.111 55.1113 159.182 53.9863C159.199 53.7402 159.265 53.5425 159.379 53.3931C159.494 53.2349 159.634 53.1162 159.801 53.0371C159.968 52.9492 160.144 52.8921 160.329 52.8657C160.522 52.8306 160.698 52.813 160.856 52.813C161.445 52.813 161.999 52.9492 162.517 53.2217ZM178.917 64.019C178.891 64.23 178.874 64.4321 178.865 64.6255C178.856 64.8188 178.852 65.0122 178.852 65.2056C178.852 66.2075 178.983 67.0601 179.247 67.7632C179.52 68.4575 179.902 69.0244 180.394 69.4639C180.895 69.9033 181.493 70.2241 182.187 70.4263C182.89 70.6196 183.677 70.7163 184.547 70.7163C185.417 70.7163 186.243 70.5977 187.025 70.3604C187.808 70.1143 188.493 69.7495 189.082 69.2661C189.68 68.7827 190.154 68.1851 190.506 67.4731C190.857 66.7524 191.033 65.9219 191.033 64.9814C191.033 64.3838 190.95 63.8389 190.783 63.3467C190.625 62.8457 190.4 62.3887 190.11 61.9756C189.829 61.5537 189.491 61.167 189.095 60.8154C188.708 60.4639 188.282 60.1343 187.816 59.8267C187.359 59.5103 186.876 59.2114 186.366 58.9302C185.856 58.6401 185.338 58.3501 184.811 58.0601C184.257 57.7612 183.703 57.4536 183.149 57.1372C182.604 56.8208 182.082 56.4824 181.581 56.1221C181.08 55.7617 180.614 55.375 180.183 54.9619C179.752 54.54 179.379 54.0742 179.062 53.5645C178.755 53.0547 178.509 52.4922 178.324 51.877C178.148 51.2617 178.061 50.5806 178.061 49.8335C178.061 48.9019 178.179 48.0361 178.417 47.2363C178.654 46.4277 178.983 45.6895 179.405 45.0215C179.836 44.3447 180.346 43.7427 180.935 43.2153C181.532 42.688 182.183 42.2441 182.886 41.8838C183.598 41.5146 184.354 41.2378 185.153 41.0532C185.962 40.8599 186.788 40.7632 187.632 40.7632C188.019 40.7632 188.432 40.7896 188.871 40.8423C189.311 40.8862 189.75 40.9565 190.189 41.0532C190.629 41.1499 191.046 41.2686 191.442 41.4092C191.846 41.541 192.202 41.6948 192.51 41.8706C192.817 42.0464 193.063 42.2397 193.248 42.4507C193.433 42.6616 193.525 42.8857 193.525 43.123C193.525 43.3779 193.521 43.6987 193.512 44.0854C193.503 44.4634 193.49 44.8984 193.472 45.3906C193.463 45.874 193.446 46.4058 193.419 46.9858C193.393 47.5571 193.362 48.1636 193.327 48.8052L191.996 48.7393C192.022 48.4229 192.035 48.1196 192.035 47.8296C192.035 46.9595 191.903 46.1948 191.64 45.5356C191.385 44.8677 191.02 44.314 190.545 43.8745C190.08 43.4263 189.513 43.0923 188.845 42.8726C188.186 42.644 187.452 42.5298 186.643 42.5298C185.834 42.5298 185.079 42.666 184.375 42.9385C183.681 43.2021 183.079 43.5757 182.569 44.0591C182.06 44.5337 181.66 45.1006 181.37 45.7598C181.08 46.4189 180.935 47.144 180.935 47.9351C180.935 48.5767 181.018 49.1611 181.185 49.6885C181.352 50.207 181.581 50.686 181.871 51.1255C182.169 51.5649 182.521 51.9648 182.925 52.3252C183.33 52.6855 183.769 53.0283 184.244 53.3535C184.718 53.6699 185.219 53.9731 185.747 54.2632C186.274 54.5532 186.806 54.8433 187.342 55.1333C187.896 55.4233 188.445 55.7222 188.99 56.0298C189.543 56.3374 190.071 56.667 190.572 57.0186C191.073 57.3613 191.534 57.7393 191.956 58.1523C192.387 58.5566 192.756 59.0093 193.063 59.5103C193.38 60.0024 193.626 60.5474 193.802 61.145C193.986 61.7427 194.079 62.4062 194.079 63.1357C194.079 64.3398 193.912 65.4077 193.578 66.3394C193.252 67.271 192.813 68.084 192.259 68.7783C191.706 69.4639 191.068 70.0439 190.348 70.5186C189.636 70.9932 188.893 71.3755 188.12 71.6655C187.346 71.9556 186.573 72.1621 185.799 72.2852C185.026 72.417 184.31 72.4829 183.65 72.4829C182.78 72.4829 181.963 72.4214 181.198 72.2983C180.434 72.1841 179.761 72.0303 179.181 71.8369C178.61 71.6436 178.157 71.4238 177.823 71.1777C177.498 70.9229 177.335 70.6636 177.335 70.3999C177.335 69.811 177.353 68.9673 177.388 67.8687C177.432 66.77 177.498 65.4648 177.586 63.9531L178.917 64.019ZM207.842 58.2183C207.842 57.5239 207.728 56.9219 207.5 56.4121C207.271 55.9023 206.972 55.4849 206.603 55.1597C206.234 54.8345 205.816 54.5928 205.351 54.4346C204.885 54.2764 204.419 54.1973 203.953 54.1973C203.329 54.1973 202.802 54.2632 202.371 54.395C201.94 54.5269 201.589 54.707 201.316 54.9355C201.053 55.1641 200.859 55.4365 200.736 55.7529C200.622 56.0605 200.565 56.3945 200.565 56.7549C200.565 57.1768 200.64 57.603 200.789 58.0337C200.947 58.4556 201.176 58.8687 201.475 59.2729L201.422 59.418C200.921 59.6641 200.416 59.7871 199.906 59.7871C199.607 59.7871 199.326 59.7432 199.062 59.6553C198.807 59.5586 198.583 59.4224 198.39 59.2466C198.205 59.0708 198.056 58.8555 197.941 58.6006C197.836 58.3457 197.783 58.0601 197.783 57.7437C197.783 57.2251 197.906 56.7373 198.152 56.2803C198.407 55.8232 198.741 55.4058 199.154 55.0278C199.567 54.6499 200.046 54.3115 200.591 54.0127C201.136 53.7139 201.699 53.4634 202.279 53.2612C202.859 53.0503 203.439 52.8921 204.019 52.7866C204.608 52.6724 205.153 52.6152 205.654 52.6152C206.577 52.6152 207.363 52.7383 208.014 52.9844C208.673 53.2305 209.205 53.5908 209.609 54.0654C210.022 54.5312 210.321 55.0981 210.505 55.7661C210.699 56.4341 210.795 57.1899 210.795 58.0337C210.795 58.6138 210.769 59.251 210.716 59.9453C210.672 60.6396 210.62 61.3691 210.558 62.1338C210.497 62.8896 210.439 63.6719 210.387 64.4805C210.343 65.2891 210.321 66.0933 210.321 66.8931C210.321 68.1587 210.554 69.1123 211.02 69.7539C211.494 70.3867 212.114 70.7031 212.878 70.7031C213.555 70.7031 214.311 70.4526 215.146 69.9517L215.528 70.5186C214.939 71.1074 214.298 71.5557 213.604 71.8633C212.909 72.1709 212.18 72.3247 211.415 72.3247C210.844 72.3247 210.316 72.228 209.833 72.0347C209.35 71.8413 208.932 71.5557 208.581 71.1777C208.229 70.791 207.957 70.3076 207.763 69.7275C207.57 69.1475 207.473 68.4751 207.473 67.7104C207.473 67.4819 207.478 67.2534 207.486 67.0249C207.504 66.7964 207.535 66.5547 207.579 66.2998H207.5C207.122 67.0557 206.682 67.8027 206.181 68.541C205.689 69.2705 205.144 69.9253 204.546 70.5054C203.958 71.0767 203.325 71.5381 202.648 71.8896C201.98 72.25 201.277 72.4302 200.539 72.4302C199.932 72.4302 199.378 72.3247 198.877 72.1138C198.376 71.9028 197.946 71.6128 197.585 71.2437C197.234 70.8745 196.957 70.4395 196.755 69.9385C196.562 69.4287 196.465 68.875 196.465 68.2773C196.465 67.5039 196.605 66.8008 196.887 66.168C197.177 65.5352 197.572 64.9683 198.073 64.4673C198.583 63.9663 199.189 63.5356 199.893 63.1753C200.596 62.8062 201.36 62.5029 202.187 62.2656C203.013 62.0195 203.887 61.8394 204.81 61.7251C205.733 61.6021 206.673 61.5405 207.631 61.5405C207.693 60.9868 207.741 60.4507 207.776 59.9321C207.82 59.4136 207.842 58.8423 207.842 58.2183ZM199.748 67.2754C199.748 67.6182 199.783 67.9478 199.853 68.2642C199.932 68.5718 200.051 68.8442 200.209 69.0815C200.376 69.3188 200.583 69.5078 200.829 69.6484C201.083 69.7803 201.387 69.8462 201.738 69.8462C202.134 69.8462 202.542 69.7539 202.964 69.5693C203.386 69.3848 203.799 69.1299 204.204 68.8047C204.617 68.4795 205.008 68.0928 205.377 67.6445C205.755 67.1875 206.093 66.6909 206.392 66.1548C206.691 65.6187 206.937 65.0562 207.13 64.4673C207.333 63.8696 207.464 63.2588 207.526 62.6348C206.875 62.6523 206.229 62.6963 205.588 62.7666C204.946 62.8281 204.335 62.9292 203.755 63.0698C203.184 63.2104 202.652 63.395 202.16 63.6235C201.668 63.8521 201.242 64.1377 200.881 64.4805C200.53 64.8145 200.253 65.2144 200.051 65.6802C199.849 66.1372 199.748 66.6689 199.748 67.2754ZM220.129 64.7705C220.806 62.5469 221.522 60.6616 222.278 59.1147C223.043 57.5679 223.816 56.3154 224.599 55.3574C225.39 54.3906 226.176 53.6919 226.958 53.2612C227.741 52.8306 228.488 52.6152 229.2 52.6152C229.692 52.6152 230.167 52.7119 230.624 52.9053C231.081 53.0898 231.485 53.3799 231.836 53.7754C232.197 54.1709 232.482 54.6807 232.693 55.3047C232.904 55.9287 233.01 56.6758 233.01 57.5459C233.01 57.8096 232.992 58.1699 232.957 58.627C232.931 59.0752 232.896 59.5806 232.852 60.1431C232.808 60.6968 232.755 61.2812 232.693 61.8965C232.641 62.5117 232.592 63.1182 232.548 63.7158C232.504 64.3135 232.465 64.8804 232.43 65.4165C232.403 65.9526 232.39 66.4141 232.39 66.8008C232.39 67.4863 232.417 68.0444 232.469 68.4751C232.531 68.9058 232.627 69.2485 232.759 69.5034C232.891 69.7495 233.067 69.9209 233.287 70.0176C233.506 70.1055 233.774 70.1494 234.091 70.1494C234.548 70.1494 235.022 70.0879 235.515 69.9648C236.007 69.833 236.503 69.6528 237.004 69.4243L237.255 70.1099C236.938 70.3647 236.539 70.624 236.055 70.8877C235.572 71.1514 235.062 71.3931 234.526 71.6128C233.999 71.8325 233.471 72.0083 232.944 72.1401C232.417 72.2808 231.951 72.3511 231.546 72.3511C231.072 72.3511 230.698 72.2236 230.426 71.9688C230.153 71.7139 229.947 71.3667 229.806 70.9272C229.674 70.4878 229.586 69.9736 229.542 69.3848C229.507 68.7959 229.49 68.1631 229.49 67.4863C229.49 66.6689 229.516 65.8252 229.569 64.9551C229.63 64.085 229.692 63.25 229.753 62.4502C229.824 61.6504 229.885 60.9209 229.938 60.2617C230 59.5938 230.03 59.0576 230.03 58.6533C230.03 57.6777 229.841 56.9482 229.463 56.4648C229.085 55.9727 228.576 55.7266 227.934 55.7266C227.433 55.7266 226.897 55.9419 226.326 56.3726C225.763 56.8032 225.201 57.3965 224.638 58.1523C224.084 58.8994 223.548 59.7871 223.03 60.8154C222.511 61.835 222.045 62.9424 221.632 64.1377C221.219 65.3242 220.876 66.5679 220.604 67.8687C220.332 69.1694 220.16 70.4702 220.09 71.771L217.282 72.1138L217.071 72.1006C217.124 71.0635 217.181 69.9209 217.242 68.6729C217.312 67.416 217.383 66.0845 217.453 64.6782C217.532 63.272 217.611 61.8086 217.69 60.2881C217.778 58.7588 217.862 57.2031 217.941 55.6211C218.029 54.0391 218.117 52.4438 218.205 50.8354C218.292 49.2271 218.376 47.6406 218.455 46.0762C218.543 44.5029 218.626 42.9648 218.706 41.4619C218.785 39.959 218.859 38.522 218.93 37.1509C218.938 36.9399 219 36.7598 219.114 36.6104C219.229 36.4521 219.374 36.3291 219.549 36.2412C219.734 36.1445 219.94 36.0742 220.169 36.0303C220.397 35.9863 220.635 35.9644 220.881 35.9644C221.408 35.9644 221.962 36.105 222.542 36.3862C222.34 38.1792 222.16 39.8271 222.001 41.3301C221.843 42.8242 221.698 44.2129 221.566 45.4961C221.443 46.7705 221.329 47.9614 221.224 49.0688C221.127 50.1763 221.035 51.2397 220.947 52.2593C220.868 53.27 220.793 54.2588 220.723 55.2256C220.652 56.1924 220.582 57.1768 220.512 58.1787C220.441 59.1719 220.367 60.209 220.288 61.29C220.217 62.3623 220.138 63.5181 220.05 64.7573L220.129 64.7705ZM251.902 67.6841C251.955 67.7104 252.021 67.75 252.1 67.8027C252.188 67.8467 252.267 67.8994 252.337 67.9609C252.407 68.0137 252.469 68.0752 252.521 68.1455C252.574 68.207 252.601 68.2686 252.601 68.3301C252.601 68.3652 252.587 68.4004 252.561 68.4355C252.069 69.1211 251.537 69.7188 250.966 70.2285C250.403 70.7295 249.814 71.1514 249.199 71.4941C248.593 71.8281 247.973 72.0742 247.34 72.2324C246.708 72.3994 246.083 72.4829 245.468 72.4829C244.414 72.4829 243.447 72.2676 242.568 71.8369C241.689 71.4062 240.933 70.8174 240.3 70.0703C239.667 69.3232 239.171 68.4487 238.811 67.4468C238.459 66.436 238.283 65.355 238.283 64.2036C238.283 63.2632 238.384 62.3228 238.586 61.3823C238.797 60.4419 239.096 59.5454 239.483 58.6929C239.878 57.8403 240.357 57.0493 240.92 56.3198C241.482 55.5815 242.12 54.9443 242.832 54.4082C243.552 53.8633 244.339 53.437 245.191 53.1294C246.053 52.8218 246.976 52.668 247.96 52.668C248.61 52.668 249.23 52.7559 249.819 52.9316C250.408 53.1074 250.922 53.3623 251.361 53.6963C251.81 54.0215 252.166 54.4258 252.429 54.9092C252.693 55.3926 252.825 55.9419 252.825 56.5571C252.825 57.4536 252.53 58.2358 251.941 58.9038C251.361 59.5718 250.557 60.1387 249.529 60.6045C248.5 61.0703 247.288 61.4482 245.89 61.7383C244.501 62.0195 242.999 62.2305 241.381 62.3711V62.5952C241.381 63.7202 241.522 64.7485 241.803 65.6802C242.093 66.6118 242.489 67.4116 242.99 68.0796C243.491 68.7388 244.08 69.2529 244.756 69.6221C245.433 69.9912 246.163 70.1758 246.945 70.1758C247.736 70.1758 248.544 69.9824 249.371 69.5957C250.206 69.2002 251.049 68.563 251.902 67.6841ZM249.423 57.0977C249.423 56.6934 249.353 56.3154 249.212 55.9639C249.081 55.6123 248.892 55.3091 248.646 55.0542C248.408 54.7905 248.123 54.584 247.789 54.4346C247.455 54.2852 247.094 54.2104 246.708 54.2104C246.136 54.2104 245.618 54.3115 245.152 54.5137C244.686 54.7158 244.269 54.9927 243.899 55.3442C243.53 55.687 243.205 56.0913 242.924 56.5571C242.643 57.0142 242.401 57.502 242.199 58.0205C242.005 58.5391 241.847 59.0708 241.724 59.6157C241.601 60.1606 241.513 60.6924 241.46 61.2109C242.708 61.123 243.825 60.9736 244.809 60.7627C245.802 60.543 246.637 60.2661 247.314 59.9321C248 59.5894 248.522 59.1851 248.883 58.7192C249.243 58.2446 249.423 57.7041 249.423 57.0977ZM261.645 36.3862C261.469 37.8804 261.293 39.4141 261.117 40.9873C260.95 42.5518 260.788 44.1382 260.629 45.7466C260.48 47.3462 260.339 48.9546 260.208 50.5718C260.076 52.189 259.961 53.7842 259.865 55.3574C259.768 56.9219 259.693 58.46 259.641 59.9717C259.588 61.4834 259.562 62.9336 259.562 64.3223C259.562 65.1924 259.57 65.9395 259.588 66.5635C259.614 67.1875 259.649 67.7148 259.693 68.1455C259.746 68.5762 259.812 68.9233 259.891 69.187C259.979 69.4507 260.084 69.6528 260.208 69.7935C260.331 69.9341 260.476 70.0308 260.643 70.0835C260.81 70.1274 261.007 70.1494 261.236 70.1494C261.658 70.1494 262.11 70.0879 262.594 69.9648C263.086 69.833 263.583 69.6528 264.083 69.4243L264.334 70.1099C264.018 70.3647 263.618 70.624 263.134 70.8877C262.66 71.1514 262.159 71.3931 261.631 71.6128C261.104 71.8325 260.585 72.0083 260.076 72.1401C259.575 72.2808 259.14 72.3511 258.771 72.3511C258.296 72.3511 257.918 72.228 257.637 71.9819C257.364 71.7446 257.153 71.3535 257.004 70.8086C256.863 70.2637 256.771 69.5562 256.727 68.686C256.692 67.8071 256.674 66.7393 256.674 65.4824C256.674 65.0254 256.688 64.375 256.714 63.5312C256.74 62.6787 256.775 61.6899 256.819 60.5649C256.872 59.4399 256.929 58.2095 256.991 56.8735C257.052 55.5376 257.118 54.1577 257.188 52.7339C257.259 51.3013 257.333 49.8599 257.413 48.4097C257.492 46.9507 257.571 45.5444 257.65 44.1909C257.729 42.8286 257.804 41.5454 257.874 40.3413C257.944 39.1372 258.01 38.0737 258.072 37.1509C258.081 36.9399 258.142 36.7598 258.256 36.6104C258.371 36.4521 258.516 36.3291 258.691 36.2412C258.876 36.1445 259.078 36.0742 259.298 36.0303C259.526 35.9863 259.755 35.9644 259.983 35.9644C260.511 35.9644 261.064 36.105 261.645 36.3862ZM269.687 47.2627C269.379 47.2627 269.106 47.2012 268.869 47.0781C268.632 46.9463 268.43 46.7793 268.263 46.5771C268.096 46.3662 267.968 46.1289 267.88 45.8652C267.792 45.5928 267.749 45.3159 267.749 45.0347C267.749 44.6392 267.814 44.292 267.946 43.9932C268.078 43.6855 268.25 43.4307 268.46 43.2285C268.671 43.0176 268.904 42.8638 269.159 42.7671C269.414 42.6616 269.665 42.6089 269.911 42.6089C270.209 42.6089 270.478 42.666 270.715 42.7803C270.952 42.8857 271.154 43.0352 271.321 43.2285C271.497 43.4219 271.629 43.646 271.717 43.9009C271.813 44.147 271.862 44.415 271.862 44.7051C271.862 45.0127 271.809 45.3203 271.704 45.6279C271.598 45.9268 271.449 46.1992 271.255 46.4453C271.071 46.6914 270.842 46.8892 270.57 47.0386C270.306 47.188 270.012 47.2627 269.687 47.2627ZM270.833 53.2217C270.684 54.2236 270.557 55.23 270.451 56.2407C270.346 57.2427 270.258 58.2139 270.188 59.1543C270.126 60.0947 270.078 60.9868 270.042 61.8306C270.016 62.6655 270.003 63.4214 270.003 64.0981C270.003 65.0122 270.016 65.7988 270.042 66.458C270.069 67.1084 270.113 67.6577 270.174 68.106C270.236 68.5542 270.311 68.9146 270.398 69.187C270.495 69.4507 270.609 69.6572 270.741 69.8066C270.882 69.9473 271.04 70.0396 271.216 70.0835C271.4 70.1274 271.607 70.1494 271.835 70.1494C272.257 70.1494 272.71 70.0879 273.193 69.9648C273.686 69.833 274.182 69.6528 274.683 69.4243L274.934 70.1099C274.617 70.3647 274.217 70.624 273.734 70.8877C273.259 71.1514 272.758 71.3931 272.231 71.6128C271.704 71.8325 271.185 72.0083 270.675 72.1401C270.174 72.2808 269.739 72.3511 269.37 72.3511C269.124 72.3511 268.9 72.3291 268.698 72.2852C268.496 72.25 268.311 72.1533 268.144 71.9951C267.986 71.8369 267.841 71.604 267.709 71.2964C267.586 70.9888 267.48 70.5713 267.393 70.0439C267.313 69.5166 267.252 68.8574 267.208 68.0664C267.164 67.2754 267.142 66.3174 267.142 65.1924C267.142 64.5332 267.146 63.7905 267.155 62.9644C267.173 62.1294 267.195 61.2373 267.221 60.2881C267.248 59.3301 267.283 58.3237 267.327 57.269C267.371 56.2056 267.428 55.1113 267.498 53.9863C267.516 53.7402 267.582 53.5425 267.696 53.3931C267.81 53.2349 267.951 53.1162 268.118 53.0371C268.285 52.9492 268.46 52.8921 268.645 52.8657C268.838 52.8306 269.014 52.813 269.172 52.813C269.761 52.813 270.315 52.9492 270.833 53.2217Z" fill="white"/>
<defs>
<linearGradient id="paint0_linear" x1="94.8089" y1="23.8216" x2="35.3411" y2="75.2403" gradientUnits="userSpaceOnUse">
<stop stop-color="#FE6A6A"/>
<stop offset="0.543" stop-color="#FFC2C3"/>
<stop offset="1" stop-color="white"/>
</linearGradient>
<linearGradient id="paint1_linear" x1="19.1187" y1="39.6386" x2="51.3763" y2="75.5788" gradientUnits="userSpaceOnUse">
<stop stop-color="white"/>
<stop stop-color="white"/>
<stop offset="1" stop-color="#FE6A6A"/>
</linearGradient>
</defs>
</svg>
