<svg width="26" height="23" viewBox="0 0 26 23" fill="none" xmlns="http://www.w3.org/2000/svg">
<path d="M24.996 6.93574C24.996 6.93574 24.996 6.93077 24.996 6.92779C24.9994 5.66964 24.6004 4.443 23.8569 3.42503C23.1133 2.40707 22.0636 1.65049 20.8593 1.26456C19.6551 0.878628 18.3586 0.883334 17.1573 1.278C15.9559 1.67266 14.9117 2.43685 14.1757 3.46018C13.4396 4.48352 13.0497 5.71302 13.0623 6.97112C13.0749 8.22921 13.4893 9.45075 14.2457 10.4593C15.0021 11.4679 16.0613 12.2113 17.2704 12.5821C18.4794 12.9529 19.7757 12.9319 20.972 12.5223C19.633 20.1602 13.643 25.0855 19.196 21.0323C25.353 16.5366 25.003 7.10578 24.996 6.93574Z" fill="#FE6A6A"/>
<path d="M5.95301 12.8459C6.60889 12.8449 7.26007 12.7357 7.88001 12.5227C6.54101 20.1608 0.552003 25.0862 6.10201 21.028C12.259 16.5322 11.909 7.10611 11.902 6.93208C11.902 6.93208 11.902 6.92711 11.902 6.92413C11.902 5.7537 11.553 4.60956 10.8991 3.63639C10.2452 2.66321 9.31576 1.90472 8.22836 1.45681C7.14095 1.00891 5.9444 0.89172 4.79002 1.12006C3.63564 1.3484 2.57527 1.91201 1.74301 2.73962C0.910749 3.56724 0.34397 4.62169 0.11435 5.76963C-0.115271 6.91756 0.0025785 8.10743 0.452996 9.18876C0.903413 10.2701 1.66617 11.1943 2.64481 11.8446C3.62344 12.4948 4.77401 12.8419 5.95101 12.8419L5.95301 12.8459Z" fill="#FE6A6A"/>
</svg>
